<svg xmlns="http://www.w3.org/2000/svg" width="168" height="51" viewBox="0 0 168 51">
  <metadata><?xpacket begin="﻿" id="W5M0MpCehiHzreSzNTczkc9d"?>
<x:xmpmeta xmlns:x="adobe:ns:meta/" x:xmptk="Adobe XMP Core 5.6-c138 79.159824, 2016/09/14-01:09:01        ">
   <rdf:RDF xmlns:rdf="http://www.w3.org/1999/02/22-rdf-syntax-ns#">
      <rdf:Description rdf:about=""/>
   </rdf:RDF>
</x:xmpmeta>
                                                                                                    
                                                                                                    
                                                                                                    
                                                                                                    
                                                                                                    
                                                                                                    
                                                                                                    
                                                                                                    
                                                                                                    
                                                                                                    
                                                                                                    
                                                                                                    
                                                                                                    
                                                                                                    
                                                                                                    
                                                                                                    
                                                                                                    
                                                                                                    
                                                                                                    
                                                                                                    
                           
<?xpacket end="w"?></metadata>
<defs>
    <style>
      .cls-1 {
        fill: #1d1d1d;
        fill-rule: evenodd;
      }
    </style>
  </defs>
  <path id="Logo" class="cls-1" d="M40.618,11.869a0.171,0.171,0,0,0,.16.1h0.094a0.17,0.17,0,0,0,.16-0.1L43.956,5.45A0.168,0.168,0,0,0,43.8,5.2H42.834a0.174,0.174,0,0,0-.16.1l-1.81,4.1H40.8l-1.81-4.1a0.174,0.174,0,0,0-.16-0.1H37.865a0.168,0.168,0,0,0-.16.248Zm4.375,0.009H45.87a0.187,0.187,0,0,0,.179-0.181V5.383A0.187,0.187,0,0,0,45.87,5.2H44.993a0.187,0.187,0,0,0-.179.181V11.7A0.187,0.187,0,0,0,44.993,11.878Zm4.469-1a3.1,3.1,0,0,1-1.424-.592,0.217,0.217,0,0,0-.321.067l-0.339.592a0.19,0.19,0,0,0,.047.286,3.018,3.018,0,0,0,2.075.744,2,2,0,0,0,2.169-1.889c0-1.23-1.056-1.783-1.971-2.155-0.764-.315-1.113-0.62-1.113-1.069a0.754,0.754,0,0,1,.83-0.667,3.081,3.081,0,0,1,1.311.525,0.248,0.248,0,0,0,.33-0.114l0.358-.544a0.237,0.237,0,0,0-.056-0.314,3.293,3.293,0,0,0-1.886-.64A1.892,1.892,0,0,0,47.35,6.938,2.323,2.323,0,0,0,49.123,9c0.792,0.325,1.2.659,1.2,1.145A0.791,0.791,0,0,1,49.462,10.877Zm3.592,1h0.877A0.187,0.187,0,0,0,54.11,11.7V5.383A0.187,0.187,0,0,0,53.931,5.2H53.054a0.186,0.186,0,0,0-.179.181V11.7A0.186,0.186,0,0,0,53.054,11.878ZM55.27,6.346h1.443V11.7a0.187,0.187,0,0,0,.179.181h0.877a0.187,0.187,0,0,0,.179-0.181V6.346h1.443a0.18,0.18,0,0,0,.179-0.181V5.383A0.18,0.18,0,0,0,59.391,5.2H55.27a0.18,0.18,0,0,0-.179.181V6.166A0.18,0.18,0,0,0,55.27,6.346ZM36.661,20.454A23.428,23.428,0,0,0,35.623,13.3a16.491,16.491,0,0,0-2.984-5.588A13.414,13.414,0,0,0,27.866,4.06a15.146,15.146,0,0,0-6.41-1.3,17.012,17.012,0,0,0-5,.712,18.026,18.026,0,0,0-4.345,1.98A19.2,19.2,0,0,0,8.425,8.467,26.152,26.152,0,0,0,5.4,12.295,30.262,30.262,0,0,0,3.042,16.7a36.718,36.718,0,0,0-1.694,4.757A36.2,36.2,0,0,0,.333,26.322,34.975,34.975,0,0,0,0,31.078a28.4,28.4,0,0,0,1.074,8.027,19.272,19.272,0,0,0,3.079,6.3A14.225,14.225,0,0,0,9.01,49.523,13.752,13.752,0,0,0,15.418,51a14.61,14.61,0,0,0,6.29-1.364A19.1,19.1,0,0,0,26.97,45.95a26.109,26.109,0,0,0,4.178-5.384,37.644,37.644,0,0,0,3.032-6.458,42.886,42.886,0,0,0,1.849-6.9A38.114,38.114,0,0,0,36.661,20.454Zm-6.313,2.6q-0.2,1.943-.633,4.044t-1.086,4.249A37.437,37.437,0,0,1,27.09,35.5a26.567,26.567,0,0,1-2.017,3.754A16.724,16.724,0,0,1,22.567,42.3a10.982,10.982,0,0,1-3.019,2.053,8.5,8.5,0,0,1-3.557.748,8.639,8.639,0,0,1-4.141-.978,9.328,9.328,0,0,1-3.1-2.693A12.547,12.547,0,0,1,6.79,37.368a18.221,18.221,0,0,1-.681-5.082,24.9,24.9,0,0,1,.6-5.264,33.3,33.3,0,0,1,1.671-5.407,32.33,32.33,0,0,1,2.579-5.058,24.049,24.049,0,0,1,3.317-4.225,15.816,15.816,0,0,1,3.868-2.9,9.044,9.044,0,0,1,4.248-1.074,7.178,7.178,0,0,1,3.593.869,7.474,7.474,0,0,1,2.553,2.378,11.005,11.005,0,0,1,1.516,3.549,18.21,18.21,0,0,1,.5,4.358A34.5,34.5,0,0,1,30.348,23.051Zm136.936,13q-1.432,1.231-2.745,2.2-0.573.413-1.181,0.81t-1.206.712a7.807,7.807,0,0,1-1.134.495,3.136,3.136,0,0,1-.989.181,1.155,1.155,0,0,1-.8-0.289,1.994,1.994,0,0,1-.513-0.785,4.964,4.964,0,0,1-.274-1.124,10,10,0,0,1-.084-1.327,9.506,9.506,0,0,1,.072-1.147q0.071-.591.179-1.159c0.072-.378.147-0.727,0.227-1.05s0.159-.6.238-0.821q1.242-3.043,2.554-5.866t2.435-5.7a60.2,60.2,0,0,0,1.957-5.9,36.805,36.805,0,0,0,1.145-6.434c0.049-.6.072-1.176,0.072-1.738a16.283,16.283,0,0,0-.215-2.669,7.941,7.941,0,0,0-.7-2.269A4.374,4.374,0,0,0,165.041.6a3.092,3.092,0,0,0-1.91-.592,5.279,5.279,0,0,0-2.96.953,11.167,11.167,0,0,0-2.7,2.645,21.837,21.837,0,0,0-2.327,4.007,36.263,36.263,0,0,0-1.85,5.046,47.435,47.435,0,0,0-1.264,5.747,45.609,45.609,0,0,0-.55,6.108,11.466,11.466,0,0,0-3.413.844,13.9,13.9,0,0,0-2.96,1.7,14.2,14.2,0,0,0-2.434,2.342,15.4,15.4,0,0,0-1.826,2.8,14.616,14.616,0,0,0-1.146,3.066,12.937,12.937,0,0,0-.394,3.126c0,0.348.02,0.69,0.049,1.029a11.911,11.911,0,0,1-1.017.745,8.2,8.2,0,0,1-1,.568,2,2,0,0,1-.824.217,1.242,1.242,0,0,1-1.156-.965,6.931,6.931,0,0,1-.372-2.463q0-.892.108-1.955t0.274-2.149q0.168-1.086.371-2.124c0.135-.691.259-1.329,0.37-1.907s0.2-1.078.275-1.5A6.179,6.179,0,0,0,136.493,27a4.85,4.85,0,0,0-.7-2.8,2.2,2.2,0,0,0-1.9-1.014,4.843,4.843,0,0,0-2.172.482,4.363,4.363,0,0,0-1.743,1.788c-0.111.192-.278,0.491-0.5,0.893s-0.47.866-.741,1.388-0.56,1.071-.871,1.642-0.6,1.115-.87,1.629-0.51.97-.717,1.364-0.359.68-.454,0.857h-0.477a6,6,0,0,1,.072-0.663q0.072-.5.178-1.159t0.227-1.45q0.12-.784.227-1.521t0.18-1.351a9.067,9.067,0,0,0,.07-0.978,3.956,3.956,0,0,0-.5-2.124,1.943,1.943,0,0,0-1.79-.8,2.764,2.764,0,0,0-2.041.749,3.791,3.791,0,0,0-1.015,1.859q-0.335,1.423-.692,3.427t-0.644,4.165c-0.158,1.193-.29,2.366-0.4,3.526-0.32.391-.638,0.768-0.956,1.121q-0.5.557-1.062,1.075a12.68,12.68,0,0,1-1.121.93,6.591,6.591,0,0,1-1.111.664,2.494,2.494,0,0,1-1.049.253,0.836,0.836,0,0,1-.871-0.639,6.079,6.079,0,0,1-.2-1.775,17.767,17.767,0,0,1,.239-2.812q0.239-1.485.525-2.971t0.526-2.9a15.777,15.777,0,0,0,.238-2.572,4.263,4.263,0,0,0-.131-1.183,1.6,1.6,0,0,0-.371-0.676,1.111,1.111,0,0,0-.548-0.314,2.94,2.94,0,0,0-.669-0.073q-0.262,0-.537.013c-0.183.008-.361,0.012-0.537,0.012a4.875,4.875,0,0,1-.609-0.037,2.088,2.088,0,0,1-.584-0.157,1.1,1.1,0,0,1-.477-0.386l-0.395-.543a2.179,2.179,0,0,0-.512-0.5,1.487,1.487,0,0,0-.859-0.217,7.851,7.851,0,0,0-3.236.712,12.933,12.933,0,0,0-3.019,1.919,16.9,16.9,0,0,0-2.637,2.825,21.313,21.313,0,0,0-2.088,3.442,20.522,20.522,0,0,0-1.385,3.729,15.639,15.639,0,0,0-.387,2c-0.142.1-.285,0.2-0.425,0.294q-0.644.434-1.336,0.858t-1.349.748a9.5,9.5,0,0,1-1.241.518A3.35,3.35,0,0,1,90,40.469a0.565,0.565,0,0,1-.405-0.278,3.176,3.176,0,0,1-.406-0.748,6.609,6.609,0,0,1-.322-1.063,5.644,5.644,0,0,1-.131-1.22V36.824c0.048-.322.11-0.653,0.19-0.99s0.159-.656.239-0.954,0.163-.575.25-0.833a5.368,5.368,0,0,1,.25-0.627q1.1-2.174,2.352-4.455t2.494-4.635q1.24-2.353,2.387-4.744t2.016-4.769a36.215,36.215,0,0,0,1.386-4.731,21.725,21.725,0,0,0,.512-4.622,12.625,12.625,0,0,0-.155-1.993,6.056,6.056,0,0,0-.537-1.75A3.247,3.247,0,0,0,99.068.476,2.872,2.872,0,0,0,97.374.006a5.49,5.49,0,0,0-2.959.917,12.024,12.024,0,0,0-2.794,2.523,25.134,25.134,0,0,0-2.553,3.767,43.774,43.774,0,0,0-2.257,4.647q-1.038,2.486-1.861,5.191T83.53,22.435q-0.6,2.678-.907,5.2a38.494,38.494,0,0,0-.31,4.672,30.938,30.938,0,0,0,.2,3.455l-0.006.01a15.549,15.549,0,0,1-5.242,5.135,7.845,7.845,0,0,0-.887.545c-0.5.293-.965,0.546-1.377,0.759a2.9,2.9,0,0,1-3.452-.579c-0.038-.051-0.075-0.1-0.113-0.151a19.038,19.038,0,0,1-1.057-1.671q-0.548-.96-1.082-2.039,1.531-1.623,3.219-3.108a28.738,28.738,0,0,1,3.583-2.691,2.515,2.515,0,0,0,.971-1.142,3.758,3.758,0,0,0,.316-1.512,3.877,3.877,0,0,0-.145-1.057,2.778,2.778,0,0,0-.437-0.909,2.225,2.225,0,0,0-.717-0.628,2.018,2.018,0,0,0-.984-0.232,3.228,3.228,0,0,0-.971.171,4.489,4.489,0,0,0-1.143.59A33.593,33.593,0,0,0,69.657,29.8a37.139,37.139,0,0,0-2.745,2.642l-0.056.28L66.511,32.5l2.841-4.3q0.214-.386.87-1.63t1.516-3.053q0.86-1.81,1.79-4.057t1.718-4.622a46.147,46.147,0,0,0,1.3-4.744,20.885,20.885,0,0,0,.514-4.418A11.325,11.325,0,0,0,76.87,3.53a4.7,4.7,0,0,0-.655-1.7A3.206,3.206,0,0,0,74.961.717a4.442,4.442,0,0,0-2.005-.4,6.351,6.351,0,0,0-2.864.652,8.9,8.9,0,0,0-2.41,1.774A13.639,13.639,0,0,0,65.7,5.365a26.985,26.985,0,0,0-1.587,3.151,34.381,34.381,0,0,0-1.241,3.4q-0.538,1.752-.931,3.369t-0.657,3.029q-0.263,1.413-.43,2.4-0.455,2.8-.776,5.771t-0.512,5.686q-0.192,2.715-.287,4.985c0,0.086-.007.167-0.01,0.25-0.18.212-.36,0.419-0.539,0.619q-0.5.557-1.062,1.075a12.757,12.757,0,0,1-1.122.93,6.608,6.608,0,0,1-1.111.664,2.5,2.5,0,0,1-1.049.253,0.837,0.837,0,0,1-.871-0.639,6.079,6.079,0,0,1-.2-1.775,17.768,17.768,0,0,1,.239-2.812q0.239-1.485.525-2.971t0.526-2.9a15.688,15.688,0,0,0,.238-2.572,4.27,4.27,0,0,0-.13-1.183,1.606,1.606,0,0,0-.371-0.676,1.112,1.112,0,0,0-.548-0.314,2.943,2.943,0,0,0-.669-0.073c-0.175,0-.355,0-0.537.013s-0.362.012-.537,0.012a4.863,4.863,0,0,1-.609-0.037,2.091,2.091,0,0,1-.584-0.157,1.1,1.1,0,0,1-.477-0.386l-0.394-.543a2.2,2.2,0,0,0-.513-0.5,1.485,1.485,0,0,0-.859-0.217,7.851,7.851,0,0,0-3.236.712,12.915,12.915,0,0,0-3.019,1.919,16.9,16.9,0,0,0-2.637,2.825,21.306,21.306,0,0,0-2.088,3.442,20.522,20.522,0,0,0-1.385,3.729,14.651,14.651,0,0,0-.5,3.719,7.755,7.755,0,0,0,.5,2.862,6.615,6.615,0,0,0,1.337,2.148A5.789,5.789,0,0,0,39.5,45.938a5.563,5.563,0,0,0,2.232.47,6.7,6.7,0,0,0,2.148-.362,11.538,11.538,0,0,0,2.065-.93,12.537,12.537,0,0,0,1.826-1.267,11.481,11.481,0,0,0,1.408-1.377A8.385,8.385,0,0,0,51,45.455a3.611,3.611,0,0,0,2.626,1.026,5.861,5.861,0,0,0,2.625-.651,12.928,12.928,0,0,0,2.459-1.594c0.227-.187.446-0.378,0.66-0.571a5.35,5.35,0,0,0,.295,1.041,2.764,2.764,0,0,0,.907,1.207,2.647,2.647,0,0,0,1.623.447,2.45,2.45,0,0,0,1.349-.374,3.734,3.734,0,0,0,1.134-1.34l0.454-1.5a17.289,17.289,0,0,0,3.011,3.978,4.621,4.621,0,0,0,2.37,1.351l-0.009.012a12.387,12.387,0,0,0,13.4-6.04c0.07-.073.14-0.146,0.208-0.221A9.964,9.964,0,0,0,86,45.213a3.309,3.309,0,0,0,2.4,1.147,7.261,7.261,0,0,0,1.743-.23,14.843,14.843,0,0,0,1.909-.616q0.979-.385,1.945-0.88t1.875-1c0.125-.073.251-0.151,0.376-0.225a6.194,6.194,0,0,0,.865,1.178,5.785,5.785,0,0,0,1.921,1.353,5.561,5.561,0,0,0,2.232.47,6.7,6.7,0,0,0,2.148-.362,11.53,11.53,0,0,0,2.065-.93,12.583,12.583,0,0,0,1.826-1.267,11.5,11.5,0,0,0,1.408-1.377,8.382,8.382,0,0,0,1.814,2.983,3.61,3.61,0,0,0,2.626,1.026,5.863,5.863,0,0,0,2.625-.651,12.939,12.939,0,0,0,2.459-1.594c0.3-.248.587-0.5,0.866-0.761a5.251,5.251,0,0,0,.385,1.329,2.762,2.762,0,0,0,.919,1.134,2.668,2.668,0,0,0,1.575.422A2.623,2.623,0,0,0,123.365,46a3.115,3.115,0,0,0,1.074-1.352l6.254-12.555h0.382q-0.288,1.933-.477,3.61a27.63,27.63,0,0,0-.192,3.127,13.746,13.746,0,0,0,.9,5.613q0.9,1.92,2.207,1.919a8.345,8.345,0,0,0,2.506-.374,13.121,13.121,0,0,0,2.292-.965,17.854,17.854,0,0,0,2.112-1.341l0.178-.133c0.068,0.114.132,0.229,0.206,0.339a5.829,5.829,0,0,0,1.885,1.8,5.142,5.142,0,0,0,2.685.676,7.048,7.048,0,0,0,2.183-.35,12.343,12.343,0,0,0,2.149-.93,14.431,14.431,0,0,0,2.053-1.364,23.374,23.374,0,0,0,1.873-1.653,7.459,7.459,0,0,0,1.349,2.245,6.681,6.681,0,0,0,1.551,1.291,5.122,5.122,0,0,0,1.433.591,5.029,5.029,0,0,0,.989.145,4.629,4.629,0,0,0,1.3-.205A11.5,11.5,0,0,0,161.7,45.6q0.738-.326,1.5-0.748t1.456-.858A40.127,40.127,0,0,0,168,41.629ZM47.822,34.915a13.853,13.853,0,0,1-.417,1.932,13.465,13.465,0,0,1-.847,2.246,7.524,7.524,0,0,1-1.241,1.859,2.145,2.145,0,0,1-1.6.772,1.432,1.432,0,0,1-.907-0.277,1.969,1.969,0,0,1-.572-0.725,3.47,3.47,0,0,1-.3-1.013,8.034,8.034,0,0,1-.083-1.172,10.291,10.291,0,0,1,.273-2.269,14.561,14.561,0,0,1,.776-2.4A15.129,15.129,0,0,1,44.1,31.583a11.98,11.98,0,0,1,1.516-1.93,7.141,7.141,0,0,1,1.754-1.341,4.041,4.041,0,0,1,1.91-.495ZM64.65,29.823q0.214-2.873.572-5.842,0.143-1.257.347-2.68t0.465-2.885q0.263-1.462.585-2.934t0.7-2.849q0.62-1.567,1.111-2.847a17.539,17.539,0,0,1,.977-2.174,5.064,5.064,0,0,1,1.039-1.376,1.92,1.92,0,0,1,1.313-.483c0.334,0,.5.259,0.5,0.773a5.923,5.923,0,0,1-.192,1.352c-0.128.532-.291,1.1-0.489,1.715s-0.417,1.248-.657,1.907-0.477,1.3-.715,1.907-0.462,1.184-.669,1.715-0.366.973-.477,1.328q-0.359,1.134-.9,2.763t-1.145,3.453q-0.61,1.824-1.23,3.694T64.65,29.823Zm24.106-7.545a45.906,45.906,0,0,1,.907-4.769q0.573-2.318,1.3-4.369a28.8,28.8,0,0,1,1.528-3.6,12.212,12.212,0,0,1,1.6-2.45,2.164,2.164,0,0,1,1.493-.906c0.126,0,.2.166,0.227,0.495s0.035,0.729.035,1.2a24.049,24.049,0,0,1-1,4.745q-0.789,2.548-1.862,5.106T90.7,22.7q-1.205,2.416-2.28,4.347A35.241,35.241,0,0,1,88.757,22.278ZM107.35,34.915a13.674,13.674,0,0,1-.417,1.932,13.439,13.439,0,0,1-.847,2.246,7.535,7.535,0,0,1-1.241,1.859,2.145,2.145,0,0,1-1.6.772,1.433,1.433,0,0,1-.907-0.277,1.974,1.974,0,0,1-.572-0.725,3.482,3.482,0,0,1-.3-1.013,7.992,7.992,0,0,1-.083-1.172,10.3,10.3,0,0,1,.273-2.269,14.655,14.655,0,0,1,.776-2.4,15.214,15.214,0,0,1,1.194-2.283,12.009,12.009,0,0,1,1.516-1.93,7.133,7.133,0,0,1,1.753-1.341,4.045,4.045,0,0,1,1.91-.495Zm43.369,3.84a9.122,9.122,0,0,1-.632.929,6.42,6.42,0,0,1-.728.8,3.74,3.74,0,0,1-.8.566,1.8,1.8,0,0,1-.847.218,3.274,3.274,0,0,1-1.36-.241,2.027,2.027,0,0,1-.812-0.628,2.256,2.256,0,0,1-.394-0.869,4.411,4.411,0,0,1-.108-0.966,9.9,9.9,0,0,1,.43-2.7,14.053,14.053,0,0,1,1.253-2.968,13.158,13.158,0,0,1,2.053-2.741,10.015,10.015,0,0,1,2.805-2.04,1.616,1.616,0,0,1,.047.482q0.024,0.508.035,1.3t0.037,1.763q0.022,0.965.048,1.871t0.072,1.642a8.2,8.2,0,0,0,.118,1.074A16.691,16.691,0,0,1,150.719,38.755Zm6.588-10.574V26.9c0-.449.008-0.978,0.023-1.581s0.045-1.27.084-2,0.091-1.494.155-2.282q0.048-.579.192-1.957t0.381-3.09q0.238-1.714.6-3.549a31.134,31.134,0,0,1,.836-3.357,10.59,10.59,0,0,1,1.1-2.5,1.712,1.712,0,0,1,1.384-.977,0.715,0.715,0,0,1,.656.507,4.96,4.96,0,0,1,.227,1.811q0,0.99-.144,2.679a24.247,24.247,0,0,1-.417,2.7q-0.3,1.425-.7,2.9t-0.9,2.932q-0.489,1.463-.966,2.789Q158.668,25.042,157.307,28.181Z"/>
</svg>
